<svg width="156" height="48" viewBox="0 0 156 48" fill="#29394C" xmlns="http://www.w3.org/2000/svg">
<g clip-path="url(#clip0)">
<path d="M31.4436 0L0 16.8209L12.2844 23.1206V38.4256L31.4502 48L50.6161 38.4256V23.1229L62.9004 16.823L31.4436 0ZM44.702 34.7428L31.4634 41.3626H31.4436H31.4261L18.1874 34.7428V26.1547L31.4436 32.9533L44.702 26.1547V34.7428ZM31.4436 26.2827L13.017 16.8341L31.4436 6.66832L49.8702 16.8341L31.4436 26.2827Z" 
      fill="#44a9f8"/>
<path d="M82.2437 19.7893C82.1413 19.9656 82.0069 20.1206 81.8469 20.2461C81.6893 20.3539 81.5013 20.4073 81.3117 20.3984C81.0917 20.3906 80.8773 20.3276 80.6885 20.2151L79.9337 19.8047C79.6247 19.6405 79.3026 19.5025 78.9707 19.3921C78.5724 19.2643 78.156 19.2024 77.7379 19.209C76.9408 19.209 76.3472 19.3796 75.9567 19.7209C75.7624 19.8932 75.6089 20.1072 75.5076 20.347C75.4063 20.5868 75.3596 20.8464 75.3709 21.1067C75.3656 21.2767 75.394 21.446 75.4547 21.6048C75.5153 21.7636 75.6069 21.9086 75.7241 22.0312C75.9909 22.2983 76.3048 22.5131 76.6499 22.6645C77.0765 22.8582 77.5164 23.0212 77.966 23.1522C78.4574 23.2992 78.959 23.464 79.4708 23.6464C79.9848 23.829 80.4877 24.0427 80.9757 24.2863C81.4621 24.5255 81.9061 24.8422 82.2917 25.2242C82.6861 25.6219 83.0005 26.0924 83.2173 26.6099C83.4677 27.2348 83.5877 27.9047 83.5709 28.5782C83.5781 29.3971 83.4285 30.2097 83.1317 30.9723C82.8461 31.7033 82.4101 32.3656 81.8533 32.9163C81.2621 33.4903 80.5597 33.9344 79.7889 34.2204C78.8965 34.5498 77.9513 34.7106 77.0008 34.6948C76.4152 34.6935 75.8311 34.6344 75.2569 34.5183C74.671 34.4015 74.0964 34.2339 73.5392 34.0174C72.9974 33.8085 72.4748 33.5523 71.9774 33.2517C71.5149 32.9755 71.0877 32.6435 70.7051 32.2631L71.9642 30.2618C72.0693 30.114 72.2048 29.9906 72.3612 29.8999C72.5232 29.8033 72.7083 29.753 72.8965 29.7543C73.1678 29.7604 73.4317 29.8439 73.6577 29.9948C73.9136 30.1551 74.2061 30.3324 74.5352 30.5266C74.8904 30.7363 75.2633 30.9143 75.6496 31.0583C76.126 31.2285 76.6292 31.31 77.1347 31.2989C77.9068 31.2989 78.5072 31.1283 78.9356 30.787C79.3641 30.4457 79.5784 29.9036 79.5784 29.1607C79.5939 28.7787 79.4681 28.4044 79.2252 28.1103C78.9663 27.8267 78.6508 27.6011 78.2995 27.4484C77.8784 27.2572 77.4427 27.1008 76.9964 26.9806C76.5095 26.8452 76.01 26.6982 75.4982 26.5393C74.9845 26.3737 74.4837 26.1701 74 25.9303C73.5148 25.6912 73.0741 25.3703 72.6969 24.9814C72.295 24.5578 71.9804 24.0583 71.7712 23.5119C71.5176 22.8171 71.3977 22.0803 71.418 21.3405C71.4188 20.6441 71.5598 19.955 71.8326 19.3149C72.1139 18.6476 72.53 18.0465 73.0544 17.5496C73.6263 17.0124 74.2969 16.5926 75.0288 16.314C75.8857 15.9927 76.795 15.8362 77.7094 15.8528C78.2597 15.8516 78.8092 15.8959 79.3524 15.9852C79.8692 16.0696 80.3773 16.2011 80.8701 16.378C81.3261 16.5436 81.7661 16.7488 82.1869 16.9914C82.5869 17.2208 82.9613 17.4947 83.3013 17.8078L82.2437 19.7893Z" 
      fill="#29394C"/>
<path d="M91.622 21.1569C92.5444 21.1451 93.4612 21.3037 94.3268 21.6247C95.1124 21.9182 95.8268 22.3754 96.4244 22.9663C97.0204 23.5691 97.4844 24.2917 97.7844 25.0868C98.1212 25.9839 98.2884 26.9368 98.2756 27.8959C98.29 28.8616 98.1252 29.8215 97.7908 30.7269C97.4916 31.5286 97.0284 32.2579 96.4308 32.8673C95.834 33.4623 95.1196 33.924 94.3332 34.2221C93.4684 34.5475 92.55 34.7084 91.6268 34.6966C90.6964 34.7091 89.7716 34.5482 88.8996 34.2221C88.1092 33.9231 87.3892 33.4617 86.7852 32.8673C86.1804 32.261 85.7124 31.5311 85.4124 30.7269C85.0772 29.8216 84.9132 28.8616 84.9276 27.8959C84.9132 26.9387 85.0772 25.9874 85.4124 25.0912C85.7132 24.2936 86.182 23.5705 86.7852 22.9707C87.3884 22.3791 88.1084 21.9207 88.898 21.6247C89.77 21.3033 90.6932 21.1447 91.622 21.1569ZM91.622 31.7816C92.5204 31.7816 93.178 31.4631 93.5964 30.8262C94.0148 30.1892 94.2268 29.2205 94.2324 27.9201C94.2324 26.6197 94.0204 25.6532 93.5964 25.0207C93.1724 24.3881 92.514 24.0718 91.622 24.0718C90.6996 24.0718 90.0236 24.3881 89.5956 25.0207C89.1668 25.6532 88.9524 26.6197 88.9524 27.9201C88.9524 29.2205 89.1668 30.1892 89.5956 30.8262C90.0236 31.4631 90.6996 31.7795 91.622 31.7751V31.7816Z" 
      fill="29394C"/>
<path d="M113.288 24.0691V30.5917C113.277 30.86 113.354 31.1243 113.508 31.3442C113.58 31.4427 113.677 31.5214 113.788 31.5734C113.899 31.6253 114.021 31.6489 114.144 31.6421C114.265 31.6451 114.386 31.6302 114.503 31.598C114.59 31.5722 114.675 31.5382 114.756 31.4964C114.826 31.4589 114.894 31.4259 114.957 31.3949C115.026 31.3644 115.101 31.3492 115.176 31.3508C115.277 31.3458 115.377 31.3745 115.46 31.4324C115.547 31.5063 115.621 31.5943 115.679 31.6928L116.864 33.5552C116.352 33.9389 115.776 34.228 115.164 34.4092C114.53 34.5996 113.872 34.6956 113.211 34.6938C112.652 34.7044 112.095 34.6125 111.568 34.4224C111.118 34.2596 110.71 33.9963 110.376 33.6524C110.04 33.3084 109.788 32.8928 109.636 32.4364C109.461 31.9276 109.376 31.3924 109.384 30.8544V24.0691H104.74V34.4908H100.837V24.0514L99.9813 23.8749C99.7237 23.8244 99.4813 23.7166 99.2709 23.5593C99.1789 23.4827 99.1069 23.3853 99.0605 23.2752C99.0133 23.1652 98.9933 23.0456 99.0005 22.926V21.3814H100.839V20.6378C100.829 19.9414 100.952 19.2495 101.199 18.5989C101.423 18.0106 101.772 17.4788 102.223 17.0411C102.696 16.5964 103.256 16.256 103.866 16.0415C104.572 15.7958 105.314 15.6756 106.06 15.6862C106.353 15.6849 106.647 15.7041 106.937 15.7436C107.223 15.785 107.505 15.8462 107.782 15.9268L107.708 17.8399C107.706 17.9534 107.674 18.0646 107.616 18.1616C107.557 18.2587 107.473 18.3381 107.374 18.3915C107.277 18.4468 107.173 18.4877 107.064 18.5128C106.957 18.5378 106.848 18.5504 106.738 18.5504C106.428 18.5465 106.12 18.5806 105.819 18.6519C105.566 18.7109 105.334 18.8357 105.145 19.0138C104.954 19.2039 104.813 19.439 104.735 19.6978C104.634 20.0452 104.587 20.4062 104.596 20.768V21.388H109.594L110.375 18.1576C110.476 17.7531 110.761 17.5508 111.23 17.5508H113.27V21.3859H116.506V24.0712L113.288 24.0691Z" 
      fill="#29394C"/>
<path d="M126.134 31.1121C126.66 31.1219 127.182 31.0251 127.669 30.8274C128.106 30.6461 128.496 30.3669 128.808 30.0109C129.132 29.6325 129.373 29.1907 129.519 28.7135C129.69 28.1495 129.773 27.5621 129.764 26.9725V16.041H134.031V26.9703C134.043 28.0341 133.857 29.0909 133.483 30.086C133.136 31.0026 132.602 31.8357 131.914 32.5309C131.204 33.2321 130.356 33.7749 129.424 34.1241C127.296 34.883 124.972 34.883 122.844 34.1241C121.914 33.7733 121.069 33.2297 120.363 32.5287C119.676 31.8343 119.143 31.0009 118.8 30.0837C118.431 29.0877 118.247 28.0313 118.259 26.9681V16.041H122.515V26.957C122.506 27.5467 122.588 28.1341 122.76 28.6981C122.906 29.1769 123.148 29.6207 123.471 30.0021C123.782 30.3615 124.172 30.6433 124.609 30.8252C125.093 31.0222 125.612 31.1197 126.134 31.1121Z" 
      fill="#29394C"/>
<path d="M140.055 22.7793C140.303 22.5446 140.564 22.3237 140.836 22.1173C141.104 21.9154 141.393 21.7437 141.698 21.6053C142.017 21.4619 142.35 21.3517 142.692 21.2765C143.074 21.1933 143.465 21.1525 143.857 21.1552C144.508 21.1424 145.153 21.2695 145.752 21.5281C146.286 21.7663 146.761 22.1213 147.142 22.5674C147.531 23.0312 147.822 23.5694 147.998 24.1496C148.195 24.7927 148.293 25.4625 148.288 26.1355V34.4808H144.385V26.1487C144.418 25.6124 144.263 25.0814 143.946 24.6482C143.786 24.4644 143.585 24.3202 143.361 24.2268C143.136 24.1334 142.893 24.0934 142.65 24.1098C142.234 24.1069 141.823 24.1997 141.448 24.3813C141.05 24.5769 140.681 24.8263 140.351 25.1227V34.4941H136.444V21.3605H138.857C139.068 21.3428 139.278 21.3991 139.453 21.5197C139.627 21.6404 139.755 21.818 139.813 22.0224L140.055 22.7793Z" 
      fill="#29394C"/>
<path d="M155.2 17.7629C155.202 18.0676 155.137 18.3689 155.011 18.6456C154.887 18.9173 154.712 19.1624 154.496 19.3672C154.273 19.5762 154.014 19.7429 153.733 19.8593C153.439 19.9823 153.124 20.0445 152.806 20.0424C152.5 20.0449 152.195 19.9825 151.913 19.8593C151.641 19.7397 151.391 19.5724 151.177 19.3649C150.963 19.1598 150.792 18.9147 150.672 18.6434C150.549 18.3656 150.488 18.0646 150.49 17.7608C150.488 17.4519 150.549 17.1459 150.672 16.8627C150.792 16.5873 150.963 16.3378 151.177 16.1279C151.389 15.9178 151.639 15.7501 151.913 15.6336C152.197 15.5146 152.5 15.4546 152.806 15.4571C153.124 15.4549 153.438 15.5148 153.733 15.6336C154.015 15.7479 154.273 15.9157 154.493 16.1279C154.71 16.3375 154.885 16.5869 155.009 16.8627C155.137 17.1453 155.201 17.4525 155.2 17.7629ZM154.796 21.3597V34.4911H150.893V21.3597H154.796Z" 
      fill="#29394C"/>
</g>
<defs>
<clipPath id="clip0">
<rect width="155.2" height="48" fill="#44a9f8"/>
</clipPath>
</defs>
</svg>
