<?xml version="1.0" standalone="no"?>
<!DOCTYPE svg PUBLIC "-//W3C//DTD SVG 20010904//EN"
 "http://www.w3.org/TR/2001/REC-SVG-20010904/DTD/svg10.dtd">
<svg version="1.0" xmlns="http://www.w3.org/2000/svg"
 width="5000.000000pt" height="2425.000000pt" viewBox="0 0 5000.000000 2425.000000"
 preserveAspectRatio="xMidYMid meet">

<g transform="translate(0.000000,2425.000000) scale(0.100000,-0.100000)"
fill="#3e4c5d" stroke="none">
<path d="M23865 24240 c-1275 -48 -2678 -433 -3859 -1062 -938 -499 -1724
-1091 -2526 -1904 -577 -585 -1062 -1183 -1549 -1909 -1464 -2182 -2332 -4558
-2580 -7065 -51 -506 -71 -941 -71 -1515 0 -656 27 -1157 96 -1775 267 -2409
1065 -4411 2397 -6008 919 -1103 2027 -1944 3182 -2417 1423 -583 3001 -669
4657 -254 805 201 1594 529 2308 957 1527 916 2840 2318 3972 4242 367 623
685 1275 961 1965 50 126 93 221 95 210 28 -168 170 -715 272 -1046 255 -828
633 -1677 1068 -2394 504 -832 1144 -1605 1847 -2230 1154 -1027 2479 -1665
3975 -1914 347 -58 726 -97 1040 -107 165 -6 206 -4 380 20 107 14 335 42 505
61 894 103 1253 178 1908 401 2300 785 4207 2334 5749 4674 1344 2038 2087
4274 2263 6810 27 391 35 666 35 1168 0 661 -20 1119 -75 1727 -156 1709 -604
3250 -1329 4568 -343 624 -744 1196 -1222 1742 -189 216 -610 642 -825 836
-1241 1115 -2600 1738 -4129 1894 -516 52 -1157 45 -1725 -20 -780 -89 -1643
-291 -2410 -565 -2397 -855 -4195 -2491 -5717 -5200 -652 -1160 -1131 -2337
-1460 -3587 l-61 -233 -3951 0 c-3489 0 -3958 -2 -4015 -15 -176 -42 -336
-189 -435 -399 -80 -171 -335 -833 -581 -1511 -298 -819 -677 -1927 -730
-2130 -50 -194 -55 -368 -13 -505 25 -81 49 -122 107 -183 56 -58 104 -87 196
-118 l70 -24 2416 -5 2416 -5 -114 -210 c-197 -363 -377 -685 -458 -820 -325
-542 -858 -1139 -1355 -1519 -475 -363 -1022 -611 -1570 -710 -226 -41 -357
-51 -650 -50 -357 0 -579 26 -870 99 -1619 408 -2817 2088 -3039 4265 -51 495
-49 1121 5 1705 193 2093 1025 3774 2459 4972 699 584 1370 912 2095 1024 125
20 184 23 425 23 240 0 301 -3 425 -22 534 -83 1004 -271 1515 -607 190 -124
326 -234 475 -384 188 -188 330 -371 655 -844 133 -193 199 -267 267 -301 59
-30 97 -32 177 -11 67 17 1040 347 2366 803 528 181 1191 407 1473 501 281 94
542 186 580 205 76 39 144 103 167 158 22 54 19 142 -9 218 -13 36 -58 160
-99 275 -361 1014 -731 1774 -1232 2530 -502 756 -1057 1368 -1780 1960 -1342
1099 -2880 1627 -4560 1565z m17440 -6080 c525 -39 1012 -195 1485 -476 435
-259 852 -645 1187 -1101 534 -724 905 -1678 1057 -2718 32 -217 43 -343 61
-695 19 -360 19 -476 0 -725 -141 -1892 -741 -3432 -1794 -4608 -144 -161
-457 -469 -604 -595 -835 -716 -1612 -1097 -2442 -1198 -191 -23 -561 -23
-750 0 -692 85 -1379 375 -1933 818 -145 117 -404 366 -531 513 -681 782
-1139 1862 -1286 3030 -45 356 -50 452 -50 895 1 327 5 467 18 605 80 817 319
1793 629 2565 286 712 631 1300 1074 1835 127 154 507 536 649 654 466 387
938 668 1486 884 657 260 1195 357 1744 317z"/>
<path d="M4389 18053 c-109 -36 -118 -49 -420 -553 -154 -256 -282 -479 -285
-496 -7 -40 7 -68 43 -82 20 -8 1355 -15 4453 -26 l4424 -16 53 25 c105 52
134 97 379 585 245 488 251 504 199 555 l-24 25 -4388 -1 c-3927 0 -4393 -2
-4434 -16z"/>
<path d="M707 15145 c-21 -8 -60 -30 -86 -49 -41 -31 -78 -87 -313 -478 -146
-244 -273 -457 -282 -475 -25 -49 -21 -99 9 -119 30 -19 454 -19 7246 0 l4377
12 48 25 c87 45 93 59 215 529 122 473 122 479 64 537 l-33 33 -5604 -1
c-4789 0 -5609 -2 -5641 -14z"/>
<path d="M6458 12250 c-69 -21 -149 -93 -188 -170 -11 -22 -99 -222 -195 -445
-189 -437 -197 -464 -152 -509 l23 -23 400 -7 c671 -10 4947 -30 4976 -23 42
11 93 62 116 114 17 41 24 108 47 466 29 446 28 474 -16 546 -40 66 155 61
-2536 60 -1346 0 -2460 -4 -2475 -9z"/>
</g>
</svg>
